<svg width="182" height="57" viewBox="0 0 182 57" fill="none" xmlns="http://www.w3.org/2000/svg">
<g filter="url(#filter0_d)">
<path d="M4 7.82023C4 3.50124 7.50124 0 11.8202 0H170.18C174.499 0 178 3.50124 178 7.82023V41.0562C178 45.3752 174.499 48.8764 170.18 48.8764H11.8202C7.50124 48.8764 4 45.3752 4 41.0562V7.82023Z" fill="#990011"/>
<path d="M31.1973 23.2479C30.0736 23.7289 28.7985 24.2742 27.146 24.2742C26.4546 24.2729 25.7667 24.178 25.1008 23.9923L26.2437 35.7271C26.2842 36.2175 26.5076 36.6749 26.8697 37.0081C27.2317 37.3416 27.7059 37.5266 28.198 37.5263C28.198 37.5263 29.8186 37.6106 30.3594 37.6106C30.9414 37.6106 32.6865 37.5263 32.6865 37.5263C33.1786 37.5263 33.6527 37.3413 34.0146 37.0081C34.3766 36.6746 34.6 36.2175 34.6404 35.7271L35.8646 22.7597C35.3175 22.5729 34.7654 22.4487 34.143 22.4487C33.0665 22.4483 32.1992 22.819 31.1973 23.2479Z" fill="#FFF500"/>
<path d="M41.1521 17.1584L40.9803 16.2903C40.8256 15.5113 40.4752 14.7753 39.6756 14.4938C39.4194 14.4037 39.1284 14.365 38.9319 14.1786C38.7355 13.9922 38.6773 13.7026 38.632 13.4341C38.5479 12.9413 38.4687 12.4481 38.3825 11.9562C38.308 11.5333 38.2489 11.0582 38.055 10.6702C37.8027 10.1492 37.2788 9.84453 36.7577 9.64295C36.4907 9.54328 36.2182 9.45898 35.9417 9.39046C34.64 9.04704 33.2715 8.9208 31.9324 8.84886C30.3252 8.76017 28.7137 8.78688 27.1102 8.92881C25.9168 9.03736 24.6598 9.16869 23.5257 9.58149C23.1111 9.73259 22.684 9.91395 22.3688 10.2342C21.9821 10.6277 21.8559 11.2362 22.1382 11.7268C22.339 12.0753 22.679 12.3215 23.0396 12.4843C23.5094 12.6942 24 12.8538 24.5032 12.9607C25.9046 13.2704 27.356 13.3921 28.7876 13.4438C30.3744 13.5079 31.9638 13.456 33.5429 13.2885C33.9335 13.2456 34.3233 13.1941 34.7124 13.1341C35.1707 13.0638 35.4648 12.4646 35.3298 12.0471C35.1682 11.548 34.7339 11.3544 34.2428 11.4298C34.1704 11.4411 34.0984 11.4516 34.026 11.4622L33.9739 11.4697C33.8075 11.4908 33.6411 11.5104 33.4748 11.5287C33.1311 11.5657 32.7866 11.596 32.4412 11.6195C31.6678 11.6734 30.8922 11.6983 30.117 11.6995C29.3553 11.6995 28.5932 11.678 27.8332 11.628C27.4864 11.6052 27.1405 11.5763 26.7955 11.5413C26.6385 11.5249 26.482 11.5076 26.3254 11.4882L26.1764 11.4693L26.144 11.4647L25.9896 11.4424C25.674 11.3948 25.3583 11.3401 25.0461 11.2741C25.0146 11.2671 24.9864 11.2495 24.9662 11.2244C24.946 11.1992 24.935 11.1679 24.935 11.1356C24.935 11.1033 24.946 11.072 24.9662 11.0469C24.9864 11.0217 25.0146 11.0041 25.0461 10.9971H25.052C25.3226 10.9395 25.5953 10.8903 25.8688 10.8473C25.96 10.833 26.0515 10.819 26.1432 10.8053H26.1457C26.317 10.7939 26.4891 10.7632 26.6595 10.743C28.1424 10.5887 29.634 10.5361 31.1241 10.5856C31.8474 10.6066 32.5704 10.6491 33.2904 10.7224C33.4453 10.7384 33.5994 10.7552 33.7534 10.7741C33.8123 10.7813 33.8716 10.7897 33.9309 10.7969L34.0505 10.8141C34.3989 10.866 34.7455 10.929 35.0903 11.0031C35.6012 11.1141 36.2571 11.1503 36.4846 11.71C36.5568 11.8876 36.5897 12.085 36.6296 12.2714L36.6807 12.5092C36.682 12.5134 36.683 12.5178 36.6836 12.5222C36.804 13.0833 36.9245 13.6444 37.0449 14.2055C37.0539 14.2469 37.0542 14.2898 37.0456 14.3313C37.0372 14.3728 37.0203 14.4122 36.996 14.4469C36.9718 14.4816 36.9405 14.5109 36.9044 14.5331C36.8683 14.5552 36.8277 14.5696 36.7858 14.5754H36.7823L36.7089 14.5855L36.636 14.5952C36.4054 14.6252 36.1744 14.6533 35.9433 14.6794C35.488 14.7312 35.032 14.7762 34.5752 14.814C33.6677 14.8895 32.7583 14.939 31.847 14.9626C31.3827 14.9749 30.9186 14.9807 30.4545 14.9798C28.6075 14.9784 26.7622 14.871 24.9274 14.6583C24.7288 14.6347 24.5302 14.6095 24.3316 14.5838C24.4856 14.6036 24.2196 14.5687 24.1658 14.5611C24.0395 14.5434 23.9133 14.5251 23.787 14.506C23.3632 14.4424 22.942 14.3642 22.5191 14.2956C22.0078 14.2114 21.5188 14.2535 21.0563 14.506C20.6767 14.7137 20.3694 15.0323 20.1755 15.4192C19.976 15.8316 19.9167 16.2806 19.8275 16.7237C19.7383 17.1669 19.5994 17.6436 19.652 18.0985C19.7652 19.0803 20.4516 19.8782 21.4388 20.0566C22.3676 20.2249 23.3014 20.3613 24.2377 20.4774C27.9158 20.9279 31.6317 20.9818 35.3213 20.6382C35.6218 20.6101 35.9219 20.5796 36.2214 20.5465C36.315 20.5362 36.4098 20.547 36.4987 20.578C36.5875 20.6091 36.6683 20.6596 36.735 20.7259C36.8018 20.7923 36.8532 20.8727 36.8849 20.9614C36.9165 21.05 36.928 21.1447 36.9184 21.2383L36.8248 22.1464C36.6367 23.9815 36.4485 25.8164 36.2603 27.6512C36.0639 29.578 35.8662 31.5047 35.6673 33.4311C35.6111 33.9738 35.555 34.5163 35.4989 35.0587C35.4451 35.5925 35.4375 36.1436 35.3361 36.6713C35.1762 37.5009 34.6144 38.0108 33.7946 38.197C33.0436 38.3679 32.2764 38.4577 31.5062 38.4647C30.6523 38.4692 29.7989 38.4315 28.945 38.436C28.0335 38.4411 26.9171 38.3571 26.2135 37.6786C25.5953 37.0828 25.5099 36.1496 25.4257 35.343C25.3135 34.2751 25.2022 33.2072 25.092 32.1392L24.4734 26.2019L24.0732 22.3602C24.0664 22.2967 24.0597 22.234 24.0534 22.17C24.0054 21.7118 23.681 21.2631 23.1697 21.2863C22.732 21.3056 22.2346 21.6776 22.2859 22.17L22.5826 25.0181L23.1962 30.9097C23.371 32.5833 23.5453 34.2569 23.7193 35.9308C23.7529 36.2516 23.7845 36.5732 23.8198 36.8937C24.0121 38.6462 25.3504 39.5905 27.0076 39.8563C27.9755 40.0122 28.9669 40.0441 29.9491 40.0601C31.2082 40.0802 32.48 40.1288 33.7184 39.9007C35.5536 39.564 36.9306 38.3385 37.127 36.4375C37.1832 35.889 37.2395 35.3398 37.2954 34.791C37.4819 32.9752 37.6682 31.1594 37.8544 29.3434L38.4626 23.4097L38.7419 20.6904C38.7556 20.5556 38.8128 20.4288 38.9041 20.3288C38.9958 20.2288 39.1172 20.161 39.2501 20.1353C39.775 20.0331 40.2765 19.8584 40.6499 19.4591C41.2441 18.8232 41.3623 17.9942 41.1521 17.1584ZM21.4119 17.7451C21.4199 17.7413 21.4051 17.8098 21.3988 17.8419C21.3976 17.7935 21.4001 17.7505 21.4119 17.7451ZM21.4628 18.1389C21.467 18.136 21.4796 18.1528 21.4927 18.173C21.4729 18.1545 21.4603 18.1406 21.4624 18.1389H21.4628ZM21.5129 18.205C21.531 18.2357 21.5407 18.2551 21.5129 18.205V18.205ZM21.6135 18.2867H21.616C21.616 18.2896 21.6206 18.2925 21.6223 18.2955C21.6195 18.2923 21.6164 18.2893 21.613 18.2867H21.6135ZM39.2258 18.1646C39.0373 18.3439 38.753 18.4272 38.4726 18.4689C35.3247 18.936 32.1311 19.1725 28.9488 19.0681C26.6713 18.9903 24.4178 18.7373 22.163 18.4188C21.9421 18.3876 21.7027 18.3473 21.5507 18.1844C21.2646 17.8772 21.4051 17.2586 21.4796 16.8874C21.5478 16.5474 21.6783 16.0942 22.0827 16.0458C22.7139 15.9717 23.447 16.2381 24.0715 16.3328C24.8234 16.4475 25.578 16.5394 26.3355 16.6084C29.5683 16.903 32.8553 16.8571 36.0738 16.4262C36.6603 16.3474 37.2449 16.2558 37.8273 16.1514C38.3464 16.0584 38.9214 15.8838 39.2351 16.4212C39.4501 16.7872 39.4785 17.2771 39.4453 17.6908C39.4351 17.871 39.3565 18.0405 39.2252 18.1646H39.2258Z" fill="white"/>
<path fill-rule="evenodd" clip-rule="evenodd" d="M58.3186 26.9107C58.1349 27.2615 57.8822 27.567 57.5605 27.8263C57.2388 28.0857 56.8638 28.2969 56.4348 28.4596C56.0061 28.6226 55.5745 28.732 55.1407 28.7877C54.7065 28.8437 54.2852 28.8388 53.8772 28.7724C53.4687 28.7064 53.1211 28.5717 52.8355 28.368L53.1575 25.026C53.4533 24.9243 53.8258 24.82 54.2753 24.7131C54.7244 24.6064 55.1864 24.5299 55.6614 24.4843C56.1364 24.4384 56.5852 24.4438 57.0092 24.4996C57.4328 24.5555 57.7672 24.6902 58.0122 24.904C58.1451 25.026 58.2576 25.1582 58.3493 25.3007C58.4413 25.4432 58.4972 25.5907 58.5179 25.7433C58.5687 26.1706 58.5026 26.5597 58.3186 26.9107ZM53.6472 19.7916C53.8616 19.6594 54.1197 19.5423 54.4206 19.4404C54.7219 19.339 55.0308 19.2675 55.3474 19.2269C55.6636 19.1864 55.9725 19.181 56.2741 19.2116C56.575 19.2422 56.8408 19.326 57.0705 19.4633C57.3002 19.6008 57.4711 19.7992 57.5835 20.0584C57.6957 20.3181 57.7263 20.6462 57.6752 21.0429C57.6347 21.3583 57.5091 21.6255 57.3002 21.8441C57.0909 22.063 56.8354 22.246 56.5345 22.3935C56.2332 22.5412 55.9141 22.6582 55.5774 22.7443C55.24 22.8311 54.9158 22.8948 54.6046 22.9352C54.2932 22.9761 54.0226 23.0016 53.7929 23.0115C53.5632 23.0218 53.4124 23.0268 53.3409 23.0268L53.6472 19.7916ZM59.9727 24.7513C59.8095 24.3954 59.59 24.0825 59.3143 23.8126C59.0387 23.5431 58.7115 23.3474 58.3339 23.2253C58.4972 23.093 58.6582 22.8845 58.8166 22.5995C58.9748 22.3149 59.1099 22.0044 59.2223 21.6687C59.3345 21.3327 59.4115 20.9947 59.452 20.6538C59.4926 20.313 59.4773 20.0205 59.4063 19.7761C59.2322 19.1659 58.9594 18.6877 58.5866 18.3417C58.2138 17.996 57.78 17.7568 57.2849 17.6244C56.7894 17.4926 56.2434 17.4643 55.6461 17.5406C55.0487 17.6169 54.4385 17.7669 53.8159 17.9907C53.8159 17.94 53.821 17.8866 53.8312 17.8306C53.8411 17.7749 53.8463 17.7162 53.8463 17.655C53.8463 17.5025 53.7699 17.3704 53.6166 17.2583C53.4635 17.1464 53.2875 17.0804 53.0885 17.0599C52.8892 17.0397 52.6953 17.0827 52.5061 17.1896C52.3173 17.2965 52.187 17.4926 52.1158 17.777C52.034 18.6928 51.9522 19.6441 51.8708 20.6308C51.789 21.6177 51.7021 22.6148 51.6104 23.6221C51.5184 24.6293 51.4264 25.6289 51.3347 26.6207C51.2427 27.6127 51.1507 28.5664 51.059 29.482C51.0897 29.7567 51.166 29.9705 51.2887 30.123C51.4111 30.2758 51.5542 30.3673 51.7174 30.3978C51.8807 30.4283 52.0519 30.4001 52.2305 30.3137C52.409 30.2276 52.5649 30.0771 52.6978 29.8636C53.1061 30.0874 53.5658 30.2324 54.0763 30.2986C54.5867 30.3646 55.1046 30.3646 55.631 30.2986C56.1565 30.2324 56.6747 30.1079 57.1852 29.9246C57.6957 29.7416 58.1605 29.5126 58.579 29.238C58.9978 28.9633 59.3498 28.6503 59.636 28.2995C59.9216 27.9483 60.1107 27.5693 60.2024 27.1626C60.2944 26.7454 60.32 26.3284 60.2791 25.9111C60.2382 25.4941 60.136 25.1077 59.9727 24.7513Z" fill="white"/>
<path fill-rule="evenodd" clip-rule="evenodd" d="M74.9152 32.8085C74.8593 33.1443 74.7798 33.4979 74.6779 33.8695C74.5756 34.2403 74.4558 34.579 74.3182 34.8844C74.1802 35.1894 74.0271 35.4357 73.8588 35.6242C73.6901 35.8124 73.5087 35.8913 73.3148 35.8609C73.1617 35.8402 73.0646 35.7437 73.0241 35.5709C72.9828 35.3977 72.9828 35.184 73.0241 34.93C73.0646 34.6754 73.1435 34.3879 73.2611 34.0675C73.3787 33.7471 73.5218 33.4289 73.6901 33.1139C73.8588 32.7983 74.0501 32.4958 74.2645 32.2057C74.4788 31.9161 74.7034 31.6742 74.9382 31.481C74.9893 31.542 75.0123 31.6946 75.0072 31.9389C75.0018 32.1831 74.9714 32.4731 74.9152 32.8085ZM80.1076 26.1855C79.9696 26.033 79.8013 25.9466 79.6019 25.9261C79.4029 25.9058 79.201 26.0177 78.9972 26.2618C78.8643 26.5059 78.6956 26.74 78.4915 26.9638C78.2874 27.1878 78.0756 27.3911 77.8561 27.5743C77.6363 27.7572 77.4271 27.9152 77.2281 28.0472C77.029 28.1797 76.8732 28.2763 76.761 28.3372C76.7201 28.0118 76.6968 27.6608 76.692 27.2842C76.6866 26.9079 76.6946 26.5265 76.715 26.1398C76.7454 25.5904 76.8093 25.0361 76.9064 24.4764C77.0035 23.9169 77.1437 23.3674 77.3277 22.828C77.3277 22.5434 77.261 22.3119 77.1284 22.1337C76.9955 21.9558 76.8348 21.8437 76.646 21.798C76.4569 21.7523 76.2633 21.7777 76.064 21.8743C75.865 21.9711 75.6941 22.1467 75.5509 22.4007C75.4286 22.7367 75.288 23.113 75.1299 23.53C74.9714 23.9473 74.7929 24.372 74.5939 24.8043C74.3945 25.237 74.1725 25.6566 73.9275 26.0634C73.6825 26.4705 73.4144 26.8318 73.1234 27.147C72.8324 27.4624 72.5158 27.7092 72.174 27.8871C71.8315 28.0652 71.4619 28.144 71.0636 28.1237C70.8796 28.0728 70.7467 27.9355 70.6652 27.7115C70.5834 27.4879 70.5349 27.2079 70.5199 26.8722C70.5045 26.5365 70.5199 26.1677 70.5655 25.7658C70.6115 25.3641 70.6729 24.9646 70.7496 24.568C70.8259 24.1711 70.9102 23.7947 71.0019 23.4387C71.0939 23.0826 71.1805 22.7823 71.2623 22.5382C71.3849 22.2433 71.3849 21.9963 71.2623 21.798C71.1399 21.5996 70.9716 21.4676 70.7572 21.4011C70.5429 21.3351 70.318 21.3378 70.0832 21.4089C69.8484 21.4801 69.6797 21.6377 69.5778 21.8819C69.404 22.2993 69.2456 22.767 69.1028 23.2859C68.96 23.8048 68.845 24.3416 68.7584 24.8959C68.6715 25.4506 68.6226 26.0001 68.6127 26.5443C68.6121 26.5797 68.6137 26.6134 68.6137 26.6486C68.391 27.2401 68.1789 27.6871 67.9773 27.9863C67.717 28.3731 67.4231 28.5409 67.0966 28.4898C66.9532 28.4288 66.8592 28.2865 66.8132 28.0625C66.7669 27.8389 66.7519 27.5642 66.7669 27.2384C66.7826 26.9131 66.8209 26.5443 66.8819 26.1321C66.9436 25.7201 67.0196 25.2928 67.1116 24.8502C67.2036 24.4075 67.3007 23.9627 67.4026 23.5149C67.5049 23.0673 67.5965 22.6451 67.6786 22.2482C67.6684 21.8921 67.5636 21.6201 67.3643 21.4317C67.1656 21.2437 66.887 21.17 66.5299 21.2105C66.2849 21.3123 66.1034 21.4447 65.9862 21.6073C65.8686 21.77 65.7741 21.9787 65.7028 22.2329C65.6616 22.3653 65.6006 22.6298 65.5188 23.0267C65.437 23.4232 65.3326 23.8787 65.2048 24.3923C65.0773 24.9064 64.9265 25.4429 64.7531 26.0024C64.5796 26.5619 64.3854 27.0684 64.1714 27.5208C63.9567 27.9735 63.7219 28.3372 63.4666 28.612C63.2114 28.8865 62.9357 28.9986 62.6396 28.9477C62.476 28.9171 62.3716 28.7492 62.3256 28.4441C62.2796 28.1388 62.2722 27.7626 62.3026 27.3148C62.3332 26.8672 62.3946 26.3762 62.4862 25.8423C62.5782 25.3081 62.6725 24.802 62.7696 24.3236C62.8667 23.8456 62.9562 23.4232 63.0379 23.0571C63.1194 22.6907 63.1756 22.4466 63.2063 22.3247C63.2063 22.0296 63.1395 21.7932 63.0073 21.6149C62.8744 21.4371 62.7137 21.325 62.5246 21.2792C62.3355 21.2335 62.1415 21.2589 61.9428 21.3555C61.7435 21.4523 61.5726 21.6279 61.4295 21.8819C61.3784 22.1566 61.3119 22.4747 61.2305 22.8358C61.1487 23.1968 61.0698 23.5682 60.9931 23.9498C60.9164 24.3314 60.8449 24.7052 60.7788 25.0715C60.7123 25.4378 60.6638 25.7582 60.6331 26.033C60.6126 26.2465 60.5896 26.5087 60.5644 26.8188C60.5385 27.1294 60.5258 27.4573 60.5258 27.8031C60.5258 28.1493 60.5513 28.4925 60.6027 28.8333C60.6535 29.1742 60.7455 29.4871 60.8781 29.7717C61.0107 30.0567 61.1972 30.2905 61.4375 30.4737C61.6771 30.6568 61.9809 30.7585 62.3486 30.779C62.7262 30.7991 63.0555 30.7715 63.3366 30.695C63.6171 30.6187 63.8724 30.4991 64.1024 30.3362C64.332 30.1738 64.5413 29.9804 64.7304 29.7564C64.9189 29.5328 65.1054 29.2886 65.2891 29.024C65.4629 29.4108 65.6875 29.7107 65.9632 29.9244C66.2389 30.138 66.5299 30.2654 66.8362 30.3058C67.1423 30.3463 67.4541 30.3035 67.7706 30.1761C68.0869 30.0491 68.3728 29.8329 68.6281 29.5275C68.7964 29.3403 68.9549 29.1275 69.1037 28.8923C69.167 29.0025 69.2341 29.1088 69.3098 29.2069C69.5599 29.5328 69.8995 29.7564 70.3285 29.8785C70.7879 30.0007 71.2367 30.0212 71.676 29.9397C72.1149 29.8584 72.5337 29.7107 72.9317 29.4972C73.3301 29.2834 73.7 29.0267 74.0425 28.7264C74.3843 28.4263 74.683 28.1136 74.9382 27.7878C74.928 28.0219 74.9229 28.2434 74.9229 28.4517C74.9229 28.6604 74.9178 28.8865 74.9079 29.1308C74.3971 29.4871 73.9147 29.9144 73.4604 30.4127C73.0058 30.9111 72.6075 31.4427 72.2657 32.0074C71.9235 32.5718 71.6555 33.1443 71.4619 33.7241C71.2677 34.3042 71.1731 34.846 71.1783 35.3498C71.1834 35.8533 71.3032 36.2931 71.5383 36.6695C71.7728 37.0461 72.1558 37.3154 72.6867 37.4783C73.2384 37.6515 73.723 37.6563 74.1421 37.4937C74.5606 37.3307 74.9254 37.0611 75.2369 36.6848C75.5484 36.3085 75.8036 35.8533 76.003 35.3191C76.202 34.785 76.3601 34.2279 76.4777 33.6481C76.5949 33.0683 76.669 32.498 76.6997 31.9389C76.7304 31.3792 76.7304 30.8805 76.6997 30.4431C77.5779 30.077 78.2976 29.6141 78.8592 29.0544C79.4208 28.4953 79.8853 27.9049 80.253 27.2842C80.3651 27.1317 80.4034 26.9485 80.368 26.735C80.3319 26.5212 80.2453 26.3381 80.1076 26.1855Z" fill="white"/>
<path fill-rule="evenodd" clip-rule="evenodd" d="M99.4285 25.2093C99.4592 24.9754 99.5052 24.7285 99.5662 24.4691C99.6275 24.2097 99.7042 23.9578 99.7962 23.7137C99.8879 23.4695 99.9952 23.2585 100.118 23.0804C100.24 22.9024 100.371 22.7753 100.508 22.6988C100.646 22.6227 100.786 22.6302 100.93 22.7216C101.083 22.8134 101.177 23.0066 101.213 23.3015C101.248 23.5969 101.213 23.9121 101.106 24.2478C100.998 24.5837 100.807 24.8989 100.531 25.194C100.256 25.4892 99.8828 25.6822 99.4132 25.7738C99.3927 25.6317 99.3978 25.4433 99.4285 25.2093ZM104.735 25.8348C104.567 25.7843 104.406 25.7791 104.253 25.8197C104.1 25.8604 104.003 25.9672 103.962 26.1403C103.88 26.4658 103.75 26.7989 103.571 27.1397C103.393 27.4807 103.173 27.8036 102.913 28.1089C102.653 28.414 102.359 28.6837 102.032 28.9176C101.705 29.1517 101.363 29.3195 101.006 29.4212C100.648 29.5332 100.352 29.5458 100.118 29.4593C99.8828 29.3731 99.6965 29.2254 99.5588 29.0169C99.4208 28.8084 99.3212 28.5565 99.2602 28.2615C99.1988 27.9664 99.163 27.6613 99.1528 27.3457C99.7349 27.3866 100.253 27.2824 100.708 27.0329C101.162 26.7839 101.547 26.453 101.864 26.041C102.18 25.629 102.42 25.1661 102.583 24.6523C102.747 24.1386 102.839 23.6273 102.859 23.1185C102.869 22.6403 102.798 22.2361 102.645 21.9054C102.492 21.5749 102.285 21.3176 102.024 21.1347C101.764 20.9515 101.465 20.8446 101.129 20.8142C100.792 20.7836 100.449 20.8295 100.102 20.9515C99.6834 21.094 99.3288 21.3253 99.0378 21.646C98.7468 21.9664 98.5043 22.3379 98.3104 22.76C98.1165 23.1822 97.9632 23.6374 97.851 24.1257C97.7386 24.6141 97.6568 25.0949 97.606 25.568C97.56 25.9926 97.5354 26.3986 97.5268 26.7905C97.5048 26.8402 97.4837 26.888 97.4603 26.9413C97.3019 27.3027 97.1179 27.6562 96.909 28.002C96.6997 28.348 96.4672 28.638 96.2122 28.8719C95.957 29.106 95.6915 29.1873 95.4158 29.116C95.2523 29.0756 95.1632 28.887 95.1478 28.5515C95.1325 28.2156 95.1501 27.7986 95.2012 27.3C95.2523 26.8017 95.3111 26.2621 95.3775 25.6822C95.4436 25.1024 95.4769 24.5481 95.4769 24.019C95.4769 23.5611 95.39 23.1212 95.2165 22.6988C95.0427 22.2769 94.8054 21.9257 94.5044 21.646C94.2032 21.366 93.8534 21.1803 93.4554 21.089C93.057 20.9972 92.6283 21.0584 92.1689 21.2719C91.7092 21.4857 91.3441 21.7857 91.0738 22.1724C90.8029 22.5592 90.5554 22.966 90.3308 23.3933C90.249 23.0676 90.1292 22.7652 89.9708 22.4852C89.8126 22.2055 89.6187 21.9613 89.389 21.7526C89.159 21.5443 88.9009 21.3815 88.6156 21.2644C88.3297 21.1476 88.0282 21.089 87.7116 21.089C87.4055 21.089 87.1222 21.1476 86.8618 21.2644C86.6015 21.3815 86.3641 21.5314 86.1495 21.7145C85.9351 21.8978 85.7412 22.1037 85.5674 22.3327C85.3939 22.5615 85.2406 22.788 85.108 23.0117C85.0873 22.7472 85.0646 22.5158 85.0394 22.3172C85.0135 22.119 84.9675 21.9511 84.9013 21.8138C84.8349 21.6764 84.7407 21.5722 84.618 21.5009C84.4953 21.4299 84.3219 21.3941 84.0973 21.3941C83.9848 21.3941 83.8724 21.4169 83.7603 21.4626C83.6478 21.5085 83.5481 21.5722 83.4616 21.6535C83.3747 21.7352 83.3086 21.8341 83.2626 21.9511C83.2166 22.068 83.2041 22.203 83.2242 22.3555C83.2344 22.4676 83.2626 22.6022 83.3086 22.76C83.3542 22.9177 83.3977 23.124 83.4386 23.378C83.4795 23.6324 83.5127 23.9402 83.5382 24.3013C83.5638 24.6625 83.5711 25.1051 83.5612 25.629C83.5507 26.1531 83.5127 26.7659 83.4462 27.4679C83.3798 28.1699 83.275 28.9838 83.1322 29.9094C83.1118 30.1232 83.1936 30.2963 83.3776 30.4285C83.5612 30.5605 83.7705 30.6368 84.0053 30.6573C84.2401 30.6777 84.4624 30.6368 84.6717 30.5353C84.8809 30.4333 85.001 30.2554 85.0314 30.0012C85.062 29.523 85.1208 29.0144 85.2077 28.475C85.2943 27.936 85.4016 27.4019 85.5294 26.8727C85.6569 26.3438 85.8022 25.8402 85.9658 25.3618C86.129 24.8836 86.3105 24.4616 86.5095 24.0953C86.7088 23.729 86.9155 23.4366 87.1299 23.2178C87.3442 22.9991 87.5688 22.8897 87.8039 22.8897C88.0895 22.8897 88.3115 23.0192 88.47 23.2786C88.6281 23.5383 88.7402 23.8716 88.807 24.2782C88.8731 24.6854 88.9038 25.1307 88.899 25.6137C88.8936 26.097 88.8731 26.5624 88.8377 27.01C88.8019 27.4578 88.761 27.857 88.715 28.208C88.669 28.559 88.6358 28.8008 88.6156 28.9329C88.6156 29.167 88.7048 29.3524 88.8833 29.4899C89.0619 29.6271 89.2609 29.7087 89.4807 29.734C89.7005 29.7596 89.9069 29.7187 90.1011 29.6119C90.295 29.505 90.4075 29.3247 90.4381 29.0701C90.54 28.3377 90.6806 27.6028 90.8592 26.8652C91.0377 26.1276 91.2422 25.4664 91.4719 24.8813C91.7016 24.2962 91.9568 23.818 92.2376 23.4467C92.5184 23.0756 92.8171 22.8897 93.1337 22.8897C93.2969 22.8897 93.4221 23.0018 93.5087 23.2254C93.5956 23.4492 93.6391 23.7543 93.6391 24.141C93.6391 24.426 93.616 24.7185 93.5704 25.0186C93.524 25.3187 93.4707 25.629 93.4094 25.9494C93.348 26.27 93.2944 26.598 93.2484 26.9337C93.2027 27.2696 93.1797 27.6204 93.1797 27.9867C93.1797 28.2411 93.2052 28.5362 93.2563 28.8719C93.3071 29.2074 93.4039 29.5257 93.547 29.8256C93.6902 30.1259 93.8866 30.3801 94.1371 30.5886C94.3872 30.7971 94.706 30.9015 95.0938 30.9015C95.6762 30.9015 96.1915 30.7768 96.6409 30.5276C97.0901 30.2784 97.4757 29.953 97.7974 29.5511C97.814 29.53 97.8293 29.5075 97.8456 29.4866C97.8702 29.546 97.8919 29.609 97.9197 29.6655C98.1392 30.1131 98.4379 30.4589 98.8158 30.7032C99.1934 30.9473 99.6377 31.0821 100.149 31.1076C100.659 31.1328 101.215 31.0387 101.818 30.8252C102.267 30.6624 102.658 30.4589 102.989 30.2147C103.321 29.9706 103.62 29.673 103.885 29.322C104.151 28.971 104.393 28.5666 104.613 28.1089C104.833 27.6508 105.054 27.1271 105.279 26.5368C105.32 26.3744 105.282 26.2294 105.164 26.102C105.047 25.975 104.904 25.8859 104.735 25.8348Z" fill="white"/>
<path fill-rule="evenodd" clip-rule="evenodd" d="M113.059 24.1326C113.008 24.4328 112.939 24.7637 112.853 25.1246C112.766 25.4859 112.656 25.8597 112.523 26.2464C112.391 26.633 112.227 26.9814 112.033 27.2916C111.839 27.6021 111.617 27.8486 111.367 28.0318C111.117 28.2149 110.828 28.2912 110.502 28.2606C110.338 28.2405 110.213 28.1286 110.126 27.9249C110.039 27.7216 109.994 27.462 109.988 27.1466C109.983 26.8314 110.011 26.4854 110.073 26.1089C110.134 25.7327 110.228 25.3637 110.356 25.0024C110.484 24.6415 110.639 24.3082 110.823 24.0028C111.007 23.6977 111.219 23.4611 111.459 23.2933C111.699 23.1254 111.962 23.0468 112.247 23.0567C112.533 23.067 112.84 23.2092 113.167 23.484C113.146 23.6164 113.11 23.8327 113.059 24.1326ZM118.504 25.3C118.346 25.2187 118.182 25.2011 118.014 25.2468C117.846 25.2924 117.725 25.4477 117.654 25.7122C117.613 25.9972 117.521 26.3327 117.379 26.7193C117.235 27.1059 117.059 27.4725 116.85 27.818C116.641 28.164 116.401 28.4515 116.13 28.6803C115.86 28.9094 115.571 29.0138 115.265 28.993C115.009 28.9729 114.831 28.8432 114.729 28.6041C114.626 28.365 114.573 28.0651 114.568 27.7036C114.563 27.3427 114.599 26.9358 114.675 26.4829C114.752 26.0303 114.844 25.5801 114.951 25.1321C115.058 24.6847 115.168 24.2547 115.28 23.8427C115.393 23.4308 115.484 23.0823 115.556 22.7975C115.638 22.5431 115.612 22.327 115.479 22.1487C115.347 21.9709 115.181 21.8435 114.982 21.7673C114.782 21.691 114.58 21.6707 114.376 21.7063C114.172 21.7419 114.04 21.8513 113.978 22.0343C113.376 21.5154 112.796 21.2356 112.24 21.195C111.683 21.1543 111.17 21.2765 110.701 21.5613C110.231 21.8461 109.815 22.2581 109.453 22.7975C109.09 23.3368 108.796 23.9242 108.572 24.5601C108.347 25.1958 108.207 25.8446 108.15 26.5058C108.094 27.1671 108.138 27.77 108.281 28.3142C108.424 28.8585 108.676 29.3037 109.039 29.6493C109.401 29.9953 109.894 30.1684 110.517 30.1684C110.793 30.1684 111.058 30.1124 111.313 30.0005C111.568 29.8884 111.803 29.7562 112.018 29.6037C112.232 29.4511 112.421 29.2908 112.585 29.1229C112.748 28.9551 112.876 28.8153 112.968 28.7032C113.039 29.0695 113.156 29.38 113.32 29.6343C113.483 29.8884 113.669 30.0973 113.879 30.2598C114.088 30.4224 114.308 30.542 114.537 30.6185C114.767 30.6948 114.989 30.733 115.203 30.733C115.684 30.733 116.132 30.5701 116.551 30.2445C116.97 29.9192 117.345 29.5196 117.677 29.0467C118.009 28.5735 118.282 28.0751 118.496 27.551C118.711 27.0272 118.854 26.5617 118.925 26.1546C118.997 26.002 118.984 25.8419 118.887 25.6741C118.79 25.5062 118.662 25.3817 118.504 25.3Z" fill="white"/>
<path fill-rule="evenodd" clip-rule="evenodd" d="M146.073 33.725C145.987 34.0707 145.851 34.3636 145.667 34.6026C145.483 34.8415 145.254 34.9661 144.978 34.9766C144.805 34.9866 144.672 34.8949 144.58 34.7019C144.488 34.5083 144.424 34.2592 144.388 33.9541C144.353 33.6487 144.337 33.3078 144.342 32.9315C144.347 32.5552 144.363 32.1837 144.388 31.8174C144.414 31.4514 144.445 31.1102 144.48 30.795C144.516 30.4794 144.544 30.2357 144.564 30.0626C144.912 30.1033 145.2 30.2531 145.43 30.5127C145.659 30.7722 145.836 31.0798 145.958 31.436C146.081 31.7921 146.152 32.1763 146.173 32.5881C146.193 33.0002 146.16 33.3791 146.073 33.725ZM140.529 33.725C140.442 34.0707 140.307 34.3636 140.123 34.6026C139.939 34.8415 139.709 34.9661 139.434 34.9766C139.26 34.9866 139.128 34.8949 139.036 34.7019C138.944 34.5083 138.88 34.2592 138.844 33.9541C138.808 33.6487 138.793 33.3078 138.798 32.9315C138.803 32.5552 138.818 32.1837 138.844 31.8174C138.869 31.4514 138.9 31.1102 138.936 30.795C138.972 30.4794 138.999 30.2357 139.02 30.0626C139.367 30.1033 139.656 30.2531 139.885 30.5127C140.115 30.7722 140.291 31.0798 140.414 31.436C140.537 31.7921 140.608 32.1763 140.628 32.5881C140.648 33.0002 140.615 33.3791 140.529 33.725ZM134.839 25.0571C134.829 25.3011 134.806 25.5173 134.77 25.7055C134.734 25.8941 134.686 26.0134 134.625 26.0643C134.512 26.0031 134.374 25.8457 134.211 25.5911C134.048 25.3369 133.92 25.0492 133.828 24.7288C133.736 24.4084 133.708 24.0932 133.744 23.7826C133.779 23.4725 133.94 23.231 134.226 23.0578C134.338 22.9968 134.435 23.0196 134.517 23.1265C134.599 23.2334 134.665 23.3884 134.717 23.5919C134.767 23.7956 134.803 24.0295 134.824 24.294C134.844 24.5586 134.849 24.8128 134.839 25.0571ZM133.483 28.1016C133.325 28.2692 133.149 28.4142 132.955 28.5364C132.761 28.6586 132.562 28.7501 132.358 28.8112C132.153 28.8723 131.97 28.8874 131.806 28.8568C131.347 28.7654 130.995 28.5668 130.75 28.2617C130.505 27.9566 130.349 27.598 130.283 27.186C130.216 26.7738 130.223 26.3338 130.306 25.8658C130.387 25.3979 130.525 24.9631 130.719 24.5611C130.913 24.1592 131.148 23.8132 131.423 23.5234C131.699 23.2334 132 23.0529 132.327 22.9815C132.204 23.5003 132.164 24.0372 132.204 24.5915C132.245 25.146 132.378 25.6674 132.603 26.1556C132.746 26.4511 132.917 26.7204 133.116 26.9645C133.315 27.2089 133.558 27.4174 133.843 27.5903C133.762 27.7634 133.642 27.9337 133.483 28.1016ZM150.43 25.2097C150.461 24.9758 150.507 24.7288 150.568 24.4693C150.63 24.2101 150.706 23.9582 150.798 23.7141C150.89 23.4698 150.997 23.2587 151.12 23.0808C151.243 22.9029 151.372 22.7755 151.51 22.6992C151.648 22.6229 151.788 22.6305 151.931 22.7221C152.085 22.8138 152.179 23.007 152.215 23.3019C152.25 23.5972 152.215 23.9123 152.108 24.2482C152 24.584 151.809 24.8994 151.533 25.1942C151.258 25.4896 150.885 25.6827 150.415 25.7742C150.395 25.632 150.4 25.4438 150.43 25.2097ZM156.603 25.2097C156.634 24.9758 156.679 24.7288 156.741 24.4693C156.802 24.2101 156.879 23.9582 156.971 23.7141C157.062 23.4698 157.169 23.2587 157.292 23.0808C157.415 22.9029 157.545 22.7755 157.683 22.6992C157.821 22.6229 157.961 22.6305 158.104 22.7221C158.257 22.8138 158.351 23.007 158.387 23.3019C158.423 23.5972 158.387 23.9123 158.28 24.2482C158.173 24.584 157.981 24.8994 157.706 25.1942C157.43 25.4896 157.057 25.6827 156.588 25.7742C156.567 25.632 156.572 25.4438 156.603 25.2097ZM162.339 26.1024C162.221 25.9754 162.078 25.8863 161.91 25.8352C161.741 25.7845 161.581 25.7795 161.427 25.8201C161.274 25.8608 161.177 25.9677 161.136 26.1406C161.055 26.4662 160.925 26.7994 160.746 27.1399C160.567 27.4811 160.348 27.804 160.087 28.1091C159.827 28.4142 159.533 28.6841 159.207 28.918C158.88 29.1521 158.538 29.32 158.181 29.4214C157.823 29.5337 157.527 29.5463 157.292 29.4597C157.057 29.3734 156.871 29.2258 156.733 29.0173C156.595 28.8086 156.496 28.5569 156.434 28.2617C156.373 27.9668 156.337 27.6617 156.327 27.3461C156.909 27.387 157.427 27.2828 157.882 27.0333C158.336 26.7841 158.722 26.4532 159.038 26.0412C159.355 25.6294 159.595 25.1665 159.758 24.6527C159.921 24.1389 160.013 23.6277 160.034 23.1189C160.044 22.6408 159.972 22.2363 159.819 21.9056C159.666 21.5752 159.46 21.318 159.199 21.1351C158.938 20.9517 158.64 20.845 158.303 20.8145C157.966 20.7839 157.624 20.83 157.277 20.9517C156.858 21.0944 156.503 21.3258 156.213 21.6462C155.922 21.9668 155.679 22.3383 155.485 22.7602C155.291 23.1826 155.138 23.6376 155.025 24.1261C154.913 24.6144 154.831 25.0953 154.78 25.5683C154.731 26.0273 154.704 26.4666 154.698 26.8871C154.659 26.9709 154.618 27.0552 154.573 27.1399C154.395 27.4811 154.175 27.804 153.915 28.1091C153.655 28.4142 153.361 28.6841 153.034 28.918C152.708 29.1521 152.365 29.32 152.008 29.4214C151.65 29.5337 151.355 29.5463 151.12 29.4597C150.885 29.3734 150.699 29.2258 150.561 29.0173C150.423 28.8086 150.323 28.5569 150.262 28.2617C150.201 27.9668 150.165 27.6617 150.155 27.3461C150.737 27.387 151.255 27.2828 151.71 27.0333C152.164 26.7841 152.549 26.4532 152.866 26.0412C153.182 25.6294 153.422 25.1665 153.585 24.6527C153.749 24.1389 153.841 23.6277 153.861 23.1189C153.871 22.6408 153.8 22.2363 153.647 21.9056C153.494 21.5752 153.287 21.318 153.026 21.1351C152.766 20.9517 152.468 20.845 152.131 20.8145C151.794 20.7839 151.451 20.83 151.105 20.9517C150.685 21.0944 150.331 21.3258 150.04 21.6462C149.749 21.9668 149.506 22.3383 149.312 22.7602C149.118 23.1826 148.965 23.6376 148.853 24.1261C148.741 24.6144 148.659 25.0953 148.608 25.5683C148.579 25.835 148.56 26.0937 148.545 26.3477C148.447 26.4314 148.351 26.5156 148.248 26.5982C147.896 26.8832 147.525 27.1399 147.138 27.369C146.749 27.598 146.346 27.7862 145.928 27.9337C145.509 28.0812 145.08 28.1703 144.641 28.2007L145.591 18.0676C145.652 17.8538 145.621 17.6659 145.499 17.503C145.376 17.3402 145.218 17.2283 145.024 17.1673C144.83 17.1062 144.623 17.1114 144.404 17.1824C144.184 17.2539 144.003 17.4167 143.86 17.6707C143.788 18.0575 143.714 18.5864 143.638 19.2579C143.561 19.9293 143.485 20.6619 143.408 21.4555C143.332 22.2491 143.255 23.068 143.179 23.9123C143.102 24.757 143.035 25.5454 142.979 26.2778C142.977 26.3104 142.975 26.3398 142.972 26.3719C142.883 26.4474 142.796 26.5235 142.704 26.5982C142.352 26.8832 141.981 27.1399 141.593 27.369C141.205 27.598 140.802 27.7862 140.383 27.9337C139.965 28.0812 139.536 28.1703 139.097 28.2007L140.046 18.0676C140.108 17.8538 140.077 17.6659 139.955 17.503C139.832 17.3402 139.674 17.2283 139.48 17.1673C139.286 17.1062 139.079 17.1114 138.859 17.1824C138.64 17.2539 138.459 17.4167 138.316 17.6707C138.244 18.0575 138.17 18.5864 138.094 19.2579C138.017 19.9293 137.94 20.6619 137.864 21.4555C137.787 22.2491 137.711 23.068 137.634 23.9123C137.558 24.757 137.491 25.5454 137.435 26.2778C137.434 26.2925 137.433 26.3059 137.432 26.3206C137.271 26.3948 137.096 26.4598 136.906 26.5144C136.713 26.5705 136.493 26.6036 136.248 26.6137C136.289 26.4304 136.322 26.2269 136.347 26.0031C136.373 25.7795 136.394 25.5454 136.409 25.3011C136.424 25.0571 136.429 24.8128 136.424 24.5687C136.419 24.3243 136.406 24.1007 136.386 23.897C136.335 23.4599 136.24 23.0452 136.103 22.6533C135.965 22.2619 135.778 21.9339 135.544 21.669C135.309 21.4046 135.015 21.2265 134.663 21.1351C134.311 21.0435 133.899 21.0739 133.43 21.2265C132.735 21.1351 132.11 21.1988 131.554 21.4173C130.997 21.6363 130.514 21.954 130.106 22.371C129.698 22.7885 129.363 23.2791 129.103 23.8438C128.843 24.4084 128.669 24.9884 128.582 25.5834C128.546 25.8356 128.528 26.0867 128.522 26.3372C128.364 26.6598 128.191 26.9417 128 27.1783C127.73 27.514 127.449 27.7887 127.158 28.0023C126.867 28.216 126.578 28.3788 126.293 28.4907C126.007 28.6028 125.751 28.6791 125.527 28.7196C125.261 28.7705 125.006 28.7757 124.761 28.7349C124.516 28.6944 124.291 28.5773 124.087 28.3839C123.924 28.2415 123.799 28.0125 123.712 27.6971C123.625 27.3818 123.574 27.0234 123.559 26.6213C123.544 26.2193 123.559 25.7996 123.605 25.3622C123.651 24.9249 123.73 24.5102 123.842 24.1185C123.954 23.7269 124.097 23.3759 124.271 23.0653C124.444 22.7554 124.649 22.5339 124.884 22.4016C125.016 22.4222 125.098 22.5008 125.129 22.638C125.159 22.7755 125.167 22.9383 125.151 23.1265C125.136 23.3149 125.113 23.5081 125.083 23.7064C125.052 23.9048 125.037 24.0703 125.037 24.2024C125.088 24.4771 125.187 24.6908 125.335 24.8434C125.483 24.996 125.65 25.0852 125.833 25.1104C126.017 25.1359 126.198 25.0928 126.377 24.9807C126.555 24.8689 126.701 24.6908 126.814 24.4465C126.824 24.4568 126.839 24.4618 126.859 24.4618L127.074 22.5238C127.135 22.2591 127.094 22.0253 126.951 21.8218C126.808 21.6183 126.619 21.5012 126.385 21.4708C126.088 21.0435 125.688 20.8172 125.182 20.7916C124.677 20.7663 124.159 20.9316 123.628 21.2876C123.301 21.5219 123.012 21.8446 122.762 22.2566C122.512 22.6688 122.308 23.1265 122.15 23.6301C121.991 24.1336 121.879 24.6655 121.813 25.225C121.746 25.7845 121.734 26.3289 121.774 26.8577C121.815 27.387 121.91 27.8855 122.058 28.3533C122.206 28.8214 122.412 29.2131 122.678 29.5283C122.903 29.803 123.158 30.0041 123.444 30.1313C123.73 30.2585 124.028 30.3372 124.34 30.3677C124.651 30.3981 124.96 30.3854 125.266 30.3296C125.573 30.2738 125.864 30.195 126.14 30.093C126.497 29.961 126.865 29.7929 127.242 29.5894C127.62 29.3861 127.982 29.1418 128.33 28.8568C128.512 28.707 128.688 28.5436 128.858 28.3684C128.935 28.5597 129.022 28.7447 129.126 28.918C129.402 29.3757 129.774 29.7472 130.244 30.032C130.713 30.3168 131.291 30.4539 131.975 30.444C132.71 30.4338 133.389 30.2483 134.012 29.887C134.635 29.5261 135.145 28.9941 135.544 28.2923C136.14 28.2923 136.727 28.1943 137.304 27.9998C137.299 28.0613 137.294 28.1262 137.289 28.1856C137.249 28.7248 137.228 29.0909 137.228 29.2843C137.218 29.62 137.195 30.0345 137.159 30.5278C137.124 31.0213 137.101 31.5402 137.09 32.0843C137.081 32.6287 137.101 33.1781 137.152 33.7327C137.203 34.2869 137.31 34.7907 137.473 35.2437C137.636 35.6961 137.869 36.0804 138.17 36.396C138.471 36.711 138.867 36.8994 139.357 36.9605C139.878 37.0314 140.327 36.94 140.705 36.6857C141.083 36.4311 141.389 36.0829 141.624 35.6405C141.859 35.1977 142.024 34.6866 142.122 34.1068C142.219 33.5266 142.247 32.9443 142.206 32.359C142.165 31.7741 142.058 31.2223 141.884 30.7036C141.711 30.1846 141.47 29.7573 141.164 29.4214C141.348 29.3708 141.568 29.2742 141.823 29.1316C142.078 28.9893 142.341 28.829 142.612 28.6508C142.678 28.6071 142.744 28.561 142.81 28.5161C142.785 28.8766 142.773 29.1337 142.773 29.2843C142.763 29.62 142.74 30.0345 142.704 30.5278C142.668 31.0213 142.645 31.5402 142.635 32.0843C142.625 32.6287 142.645 33.1781 142.696 33.7327C142.747 34.2869 142.854 34.7907 143.018 35.2437C143.181 35.6961 143.413 36.0804 143.714 36.396C144.016 36.711 144.411 36.8994 144.902 36.9605C145.422 37.0314 145.871 36.94 146.249 36.6857C146.627 36.4311 146.933 36.0829 147.168 35.6405C147.403 35.1977 147.569 34.6866 147.666 34.1068C147.763 33.5266 147.791 32.9443 147.75 32.359C147.709 31.7741 147.602 31.2223 147.429 30.7036C147.255 30.1846 147.015 29.7573 146.709 29.4214C146.893 29.3708 147.112 29.2742 147.367 29.1316C147.622 28.9893 147.885 28.829 148.156 28.6508C148.297 28.5583 148.436 28.4629 148.576 28.3647C148.628 28.8622 148.742 29.2986 148.922 29.6657C149.141 30.1135 149.44 30.4593 149.818 30.7036C150.195 30.9476 150.64 31.0825 151.151 31.1079C151.661 31.133 152.217 31.0392 152.82 30.8254C153.269 30.6628 153.66 30.4593 153.991 30.2152C154.323 29.9708 154.622 29.6733 154.887 29.3224C154.903 29.3021 154.917 29.2801 154.932 29.2595C154.98 29.402 155.032 29.5389 155.094 29.6657C155.314 30.1135 155.613 30.4593 155.99 30.7036C156.368 30.9476 156.812 31.0825 157.323 31.1079C157.833 31.133 158.39 31.0392 158.992 30.8254C159.442 30.6628 159.832 30.4593 160.164 30.2152C160.496 29.9708 160.794 29.6733 161.06 29.3224C161.325 28.9713 161.568 28.5668 161.787 28.1091C162.007 27.6513 162.229 27.1275 162.454 26.5373C162.494 26.3746 162.456 26.2296 162.339 26.1024Z" fill="white"/>
</g>
<defs>
<filter id="filter0_d" x="0" y="0" width="182" height="56.8764" filterUnits="userSpaceOnUse" color-interpolation-filters="sRGB">
<feFlood flood-opacity="0" result="BackgroundImageFix"/>
<feColorMatrix in="SourceAlpha" type="matrix" values="0 0 0 0 0 0 0 0 0 0 0 0 0 0 0 0 0 0 127 0" result="hardAlpha"/>
<feOffset dy="4"/>
<feGaussianBlur stdDeviation="2"/>
<feComposite in2="hardAlpha" operator="out"/>
<feColorMatrix type="matrix" values="0 0 0 0 0 0 0 0 0 0 0 0 0 0 0 0 0 0 0.25 0"/>
<feBlend mode="normal" in2="BackgroundImageFix" result="effect1_dropShadow"/>
<feBlend mode="normal" in="SourceGraphic" in2="effect1_dropShadow" result="shape"/>
</filter>
</defs>
</svg>
